<mxfile host="app.diagrams.net" modified="2023-11-25T14:57:08.345Z" agent="Mozilla/5.0 (Macintosh; Intel Mac OS X 10_15_7) AppleWebKit/537.36 (KHTML, like Gecko) Chrome/117.0.0.0 Safari/537.36" etag="fO4wMqT6LvHdvLFMBxjA" version="22.1.4" type="device">
  <diagram name="PÃ¡gina-1" id="5-jj4Z0R6jAeGmkfEl-E">
    <mxGraphModel dx="1434" dy="765" grid="1" gridSize="10" guides="1" tooltips="1" connect="1" arrows="1" fold="1" page="1" pageScale="1" pageWidth="827" pageHeight="1169" math="0" shadow="0">
      <root>
        <mxCell id="0" />
        <mxCell id="1" parent="0" />
        <mxCell id="lYatqgpl7FsuIEnpKFFe-1" value="" style="rounded=1;whiteSpace=wrap;html=1;" vertex="1" parent="1">
          <mxGeometry x="160" y="70" width="240" height="400" as="geometry" />
        </mxCell>
        <mxCell id="lYatqgpl7FsuIEnpKFFe-2" value="a = 20" style="rounded=0;whiteSpace=wrap;html=1;" vertex="1" parent="1">
          <mxGeometry x="210" y="110" width="120" height="60" as="geometry" />
        </mxCell>
        <mxCell id="lYatqgpl7FsuIEnpKFFe-3" value="b = 20" style="rounded=0;whiteSpace=wrap;html=1;" vertex="1" parent="1">
          <mxGeometry x="210" y="180" width="120" height="60" as="geometry" />
        </mxCell>
        <mxCell id="lYatqgpl7FsuIEnpKFFe-4" value="" style="endArrow=classic;html=1;rounded=0;" edge="1" parent="1" source="lYatqgpl7FsuIEnpKFFe-7">
          <mxGeometry width="50" height="50" relative="1" as="geometry">
            <mxPoint x="120" y="209.5" as="sourcePoint" />
            <mxPoint x="190" y="209.5" as="targetPoint" />
          </mxGeometry>
        </mxCell>
        <mxCell id="lYatqgpl7FsuIEnpKFFe-5" value="p1 {&lt;br&gt;&lt;span style=&quot;white-space: pre;&quot;&gt;&#x9;&lt;/span&gt;nombre:&amp;nbsp; Richard&lt;br&gt;}" style="rounded=0;whiteSpace=wrap;html=1;" vertex="1" parent="1">
          <mxGeometry x="200" y="270" width="180" height="60" as="geometry" />
        </mxCell>
        <mxCell id="lYatqgpl7FsuIEnpKFFe-6" value="0001" style="text;html=1;strokeColor=none;fillColor=none;align=center;verticalAlign=middle;whiteSpace=wrap;rounded=0;" vertex="1" parent="1">
          <mxGeometry x="160" y="125" width="60" height="30" as="geometry" />
        </mxCell>
        <mxCell id="lYatqgpl7FsuIEnpKFFe-7" value="0002" style="text;html=1;strokeColor=none;fillColor=none;align=center;verticalAlign=middle;whiteSpace=wrap;rounded=0;" vertex="1" parent="1">
          <mxGeometry x="160" y="195" width="60" height="30" as="geometry" />
        </mxCell>
        <mxCell id="lYatqgpl7FsuIEnpKFFe-9" value="0003" style="text;html=1;strokeColor=none;fillColor=none;align=center;verticalAlign=middle;whiteSpace=wrap;rounded=0;" vertex="1" parent="1">
          <mxGeometry x="150" y="285" width="60" height="30" as="geometry" />
        </mxCell>
        <mxCell id="lYatqgpl7FsuIEnpKFFe-10" value="p2 : 0003" style="rounded=0;whiteSpace=wrap;html=1;" vertex="1" parent="1">
          <mxGeometry x="200" y="350" width="180" height="60" as="geometry" />
        </mxCell>
        <mxCell id="lYatqgpl7FsuIEnpKFFe-11" value="" style="endArrow=classic;html=1;rounded=0;" edge="1" parent="1">
          <mxGeometry width="50" height="50" relative="1" as="geometry">
            <mxPoint x="90" y="299.5" as="sourcePoint" />
            <mxPoint x="150" y="299.5" as="targetPoint" />
            <Array as="points">
              <mxPoint x="120" y="300" />
            </Array>
          </mxGeometry>
        </mxCell>
      </root>
    </mxGraphModel>
  </diagram>
</mxfile>
